HIERARCHY
ROOT hip
{
  OFFSET 0 0 0
  CHANNELS 6 Xposition Yposition Zposition Zrotation Yrotation Xrotation
  JOINT abdomen
  {
    OFFSET 0 20.6881 -0.73152
    CHANNELS 3 Zrotation Xrotation Yrotation
    JOINT chest
    {
      OFFSET 0 11.7043 -0.48768
      CHANNELS 3 Zrotation Xrotation Yrotation
      JOINT neck
      {
        OFFSET 0 22.1894 -2.19456
        CHANNELS 3 Zrotation Xrotation Yrotation
        JOINT head
        {
          OFFSET -0.24384 7.07133 1.2192
          CHANNELS 3 Zrotation Xrotation Yrotation
          JOINT leftEye
          {
            OFFSET 4.14528 8.04674 8.04672
            CHANNELS 3 Zrotation Xrotation Yrotation
            End Site
            {
              OFFSET 1 0 0
            }
          }
          JOINT rightEye
          {
            OFFSET -3.6576 8.04674 8.04672
            CHANNELS 3 Zrotation Xrotation Yrotation
            End Site
            {
              OFFSET 1 0 0
            }
          }
        }
      }
      JOINT rCollar
      {
        OFFSET -2.68224 19.2634 -4.8768
        CHANNELS 3 Zrotation Xrotation Yrotation
        JOINT rShldr
        {
          OFFSET -8.77824 -1.95073 1.46304
          CHANNELS 3 Zrotation Xrotation Yrotation
          JOINT rForeArm
          {
            OFFSET -28.1742 -1.7115 0.48768
            CHANNELS 3 Zrotation Xrotation Yrotation
            JOINT rHand
            {
              OFFSET -22.5879 0.773209 7.07136
              CHANNELS 3 Zrotation Xrotation Yrotation
              JOINT rThumb1
              {
                OFFSET -1.2192 -0.487915 3.41376
                CHANNELS 3 Zrotation Xrotation Yrotation
                JOINT rThumb2
                {
                  OFFSET -3.37035 -0.52449 3.41376
                  CHANNELS 3 Zrotation Xrotation Yrotation
                  End Site
                  {
                    OFFSET -1.78271 -1.18214 1.43049
                  }
                }
              }
              JOINT rIndex1
              {
                OFFSET -7.75947 0.938293 5.60832
                CHANNELS 3 Zrotation Xrotation Yrotation
                JOINT rIndex2
                {
                  OFFSET -2.54057 -0.884171 1.56538
                  CHANNELS 3 Zrotation Xrotation Yrotation
                  End Site
                  {
                    OFFSET -1.62519 -0.234802 1.16502
                  }
                }
              }
              JOINT rMid1
              {
                OFFSET -8.24714 1.18213 3.41376
                CHANNELS 3 Zrotation Xrotation Yrotation
                JOINT rMid2
                {
                  OFFSET -3.10165 -0.590103 1.0647
                  CHANNELS 3 Zrotation Xrotation Yrotation
                  End Site
                  {
                    OFFSET -2.48547 -0.328903 0.83742
                  }
                }
              }
              JOINT rRing1
              {
                OFFSET -8.82822 0.546677 1.51678
                CHANNELS 3 Zrotation Xrotation Yrotation
                JOINT rRing2
                {
                  OFFSET -2.60934 -0.819778 -0.0198488
                  CHANNELS 3 Zrotation Xrotation Yrotation
                  End Site
                  {
                    OFFSET -2.33842 -0.294052 0.168128
                  }
                }
              }
              JOINT rPinky1
              {
                OFFSET -8.27202 -0.0477905 -0.4584
                CHANNELS 3 Zrotation Xrotation Yrotation
                JOINT rPinky2
                {
                  OFFSET -1.82734 -0.647385 -0.700984
                  CHANNELS 3 Zrotation Xrotation Yrotation
                  End Site
                  {
                    OFFSET -1.69225 -0.51767 -0.607171
                  }
                }
              }
            }
          }
        }
      }
      JOINT lCollar
      {
        OFFSET 2.68224 19.2634 -4.8768
        CHANNELS 3 Zrotation Xrotation Yrotation
        JOINT lShldr
        {
          OFFSET 8.77824 -1.95073 1.46304
          CHANNELS 3 Zrotation Xrotation Yrotation
          JOINT lForeArm
          {
            OFFSET 28.1742 -1.7115 0.48768
            CHANNELS 3 Zrotation Xrotation Yrotation
            JOINT lHand
            {
              OFFSET 22.5879 0.773209 7.07136
              CHANNELS 3 Zrotation Xrotation Yrotation
              JOINT lThumb1
              {
                OFFSET 1.2192 -0.487915 3.41376
                CHANNELS 3 Zrotation Xrotation Yrotation
                JOINT lThumb2
                {
                  OFFSET 3.37035 -0.52449 3.41376
                  CHANNELS 3 Zrotation Xrotation Yrotation
                  End Site
                  {
                    OFFSET 1.78271 -1.18214 1.43049
                  }
                }
              }
              JOINT lIndex1
              {
                OFFSET 7.75947 0.938293 5.60832
                CHANNELS 3 Zrotation Xrotation Yrotation
                JOINT lIndex2
                {
                  OFFSET 2.54057 -0.884171 1.56538
                  CHANNELS 3 Zrotation Xrotation Yrotation
                  End Site
                  {
                    OFFSET 1.62519 -0.234802 1.16502
                  }
                }
              }
              JOINT lMid1
              {
                OFFSET 8.24714 1.18213 3.41376
                CHANNELS 3 Zrotation Xrotation Yrotation
                JOINT lMid2
                {
                  OFFSET 3.10165 -0.590103 1.0647
                  CHANNELS 3 Zrotation Xrotation Yrotation
                  End Site
                  {
                    OFFSET 2.48547 -0.328903 0.83742
                  }
                }
              }
              JOINT lRing1
              {
                OFFSET 8.82822 0.546677 1.51678
                CHANNELS 3 Zrotation Xrotation Yrotation
                JOINT lRing2
                {
                  OFFSET 2.60934 -0.819778 -0.0198488
                  CHANNELS 3 Zrotation Xrotation Yrotation
                  End Site
                  {
                    OFFSET 2.33842 -0.294052 0.168128
                  }
                }
              }
              JOINT lPinky1
              {
                OFFSET 8.27202 -0.0477905 -0.4584
                CHANNELS 3 Zrotation Xrotation Yrotation
                JOINT lPinky2
                {
                  OFFSET 1.82734 -0.647385 -0.700984
                  CHANNELS 3 Zrotation Xrotation Yrotation
                  End Site
                  {
                    OFFSET 1.69225 -0.51767 -0.607171
                  }
                }
              }
            }
          }
        }
      }
    }
  }
  JOINT rButtock
  {
    OFFSET -8.77824 4.35084 1.2192
    CHANNELS 3 Zrotation Xrotation Yrotation
    JOINT rThigh
    {
      OFFSET 0 -1.70687 -2.19456
      CHANNELS 3 Zrotation Xrotation Yrotation
      JOINT rShin
      {
        OFFSET 0 -36.8199 0.73152
        CHANNELS 3 Zrotation Xrotation Yrotation
        JOINT rFoot
        {
          OFFSET 0.73152 -45.1104 -5.12064
          CHANNELS 3 Zrotation Xrotation Yrotation
          End Site
          {
            OFFSET -1.1221 -3.69964 12.103
          }
        }
      }
    }
  }
  JOINT lButtock
  {
    OFFSET 8.77824 4.35084 1.2192
    CHANNELS 3 Zrotation Xrotation Yrotation
    JOINT lThigh
    {
      OFFSET 0 -1.70687 -2.19456
      CHANNELS 3 Zrotation Xrotation Yrotation
      JOINT lShin
      {
        OFFSET 0 -36.8199 0.73152
        CHANNELS 3 Zrotation Xrotation Yrotation
        JOINT lFoot
        {
          OFFSET -0.73152 -45.1104 -5.12064
          CHANNELS 3 Zrotation Xrotation Yrotation
          End Site
          {
            OFFSET 1.1221 -3.69964 12.103
          }
        }
      }
    }
  }
}
MOTION
Frames:	8
Frame Time:	0.03333
56.562999999999995 53.9683 50.8559 -166.288218 -16.606835 -179.634401 9.857797 6.721989 144.437387 -4.00247 0.61875 -139.597993 11.199567 23.344723 106.647069 -30.811803 14.211654 -82.041373 0.001701 -0.0 -0.000548 -0.003953 0.0 -0.004498 -83.77032 68.265979 86.903037 -135.37369 -34.909353 129.065626 -74.122098 49.205988 -161.641739 3.066944 -75.743725 -9.629367 83.25399 -50.257744 33.616163 -34.504614 9.81339 -5.278862 -152.253736 -18.832818 121.412515 -62.044662 57.378401 46.107173 12.028711 -37.299308 -3.218686 -163.707462 -5.692944 143.398458 -0.021581 -1.724175 -0.543045 -152.536183 25.105877 168.033761 -12.371805 -24.158621 -11.757695 -75.660742 -54.752977 -75.805752 0.165371 0.979145 -0.219208 81.80803 34.990267 -128.192302 102.825432 -60.554925 92.875169 -3.155495 21.63316 -8.120783 0.440973 0.435547 -0.069324 -10.869081 -15.464467 8.119534 46.208571 39.652621 -36.318597 -6.731171 0.010101 2.548655 -23.903217 -61.333942 -1.39858 88.797317 63.974027 -80.342764 145.118717 0.185694 179.186141 -11.94889 52.755722 2.723463 26.566106 -38.860744 25.605262 3.797201 -16.338901 6.473229 -0.0 -0.00053 -0.000318 -8.911046 6.454762 -125.640013 -32.23906 -18.89005 121.760945 95.605225 -56.753249 11.426368 -0.00099 0.001144 -0.000495 72.969917 -54.897572 70.223502 10.047748 76.194868 -101.7109 148.58757 15.76241 -91.810644
56.46489999999999 53.995099999999994 50.8646 -166.244161 -16.552042 -179.835876 13.284985 10.383242 -52.64456 4.820797 -4.061757 57.044951 6.639275 13.968539 45.769766 -18.113188 -15.869414 -26.976393 0.004164 -0.0 -0.00226 -0.000887 -0.0 0.001845 -159.2208 -48.02854 170.414925 -162.153447 78.897628 108.761901 -44.13297 16.342731 149.66251 19.634121 -85.187814 4.02947 6.463533 -6.452729 -0.635549 -133.776734 -30.67905 119.461086 2.325202 -3.868141 -1.25827 -177.429012 -34.475229 106.387114 8.396193 -26.368088 -3.092969 3.004859 0.39222 0.049619 -0.018119 -1.644503 -0.517236 9.363651 12.723899 1.661305 1.29933 3.491585 1.191616 -146.309193 8.136852 -142.82075 80.166271 68.371755 -83.260808 151.132216 37.200672 -110.560948 133.964145 -8.998694 -174.764785 -14.229315 -13.417826 -14.681568 168.11188 -5.788943 -89.868934 125.67702 10.99105 -60.137652 108.42748 34.160419 -91.742553 -46.078173 -53.902979 -5.951691 89.835069 60.703222 -81.263218 8.960125 29.417756 -7.513777 -0.005402 1.855454 -0.582443 -9.605929 7.243661 -0.881753 7.144573 -15.706989 6.729474 159.273846 55.613434 150.010467 -0.010255 0.000129 -0.007691 -11.004762 7.437598 89.06432 35.94834 -3.242779 -79.713591 -89.304451 28.654344 2.076738 -0.000138 0.000128 0.000177 72.603399 -54.818681 69.775503 60.012597 76.484326 87.779562 82.491054 47.772485 -173.742143
56.3867 54.0106 50.895999999999994 -165.987029 -16.684617 -179.852147 11.907331 11.005087 -1.811362 1.809192 -7.136807 6.079844 -5.340577 13.916375 -22.1943 20.126825 -17.146228 47.018589 0.003351 -0.0 -0.005703 0.00402 -0.0 -0.002006 -150.168317 21.535067 155.274922 -97.249258 16.831616 82.35901 14.182958 -39.836191 -139.236397 -153.886317 26.57704 132.054842 -68.482798 37.952906 35.65988 2.774973 -12.49893 23.018593 -33.798432 34.485353 25.494174 -1.381945 12.406858 0.927623 -39.291369 53.364824 32.879687 -88.565628 63.975521 80.474026 -72.756371 -72.142596 -89.772558 14.09804 26.717164 -1.014754 -152.873334 39.992058 -148.059287 -26.043735 -40.249344 -26.81822 -3.2691 -26.755755 5.242278 114.428875 -10.255836 -164.518662 -7.028758 3.357735 60.78368 -133.016289 -51.257402 -127.067741 -93.028075 -51.08434 -40.501386 161.814082 -27.841954 -126.467281 127.853753 18.702761 -107.506147 173.311778 -30.261448 -116.726995 0.220679 0.638219 -0.123413 34.362179 55.16468 -28.967245 0.000823 0.022559 -0.007695 77.412758 78.795666 -90.823865 144.107956 8.781178 140.876379 -34.934763 74.508844 0.551571 -0.000273 0.000297 0.000351 -8.678324 6.883347 -128.138954 -41.417172 -17.487791 -134.929844 -135.186647 -17.806812 169.753904 -179.734821 75.749186 -0.204385 -145.618074 -3.633732 -101.47943 -72.118036 -5.768779 71.338612 131.300937 -18.292197 -33.73696
56.296 54.01049999999999 50.9452 -165.596464 -16.84538 -179.660781 10.310333 6.830371 123.175091 -4.892003 -1.197585 -119.215835 -6.859144 15.125945 -32.428895 24.644107 -13.299194 57.31058 0.000404 0.0 8.4e-05 -0.000276 0.0 -0.003599 -13.743315 42.431559 15.569306 -99.508826 -14.013713 179.395733 -77.001776 34.634087 -121.712943 177.488331 -65.816892 153.332368 -94.358774 37.886756 53.980324 -24.230888 -9.304376 33.255347 23.269168 -41.070341 -5.685523 125.848077 -63.412057 64.639736 6.533324 -20.414885 -2.718228 -4.793949 20.786935 4.265929 0.001221 0.064033 0.018336 -155.942369 -9.92301 173.035624 -23.391325 -36.349037 -22.494221 -137.347887 -13.093634 -135.54793 158.467602 -30.055608 -166.919795 -108.993909 52.442644 114.414051 20.925367 42.490567 -40.868848 2.347471 40.592647 -7.239056 169.561423 -7.243258 -89.930103 96.238426 10.934379 -39.051308 0.329301 0.52938 -0.186487 65.7677 48.402765 -50.660776 36.036908 51.722961 -29.832236 42.044701 58.503495 -36.270877 -0.004373 1.771558 -0.555376 -11.432825 -33.224599 3.986266 28.113715 -39.960405 27.127932 104.722225 -47.689606 104.563894 -179.982424 75.748992 -0.012025 124.952247 77.604246 -180.0 41.143232 -25.868025 109.102753 27.429029 -5.91081 104.309312 -0.000997 0.000595 -0.0 77.681622 -55.831412 -100.241592 -38.657691 -76.618228 42.900126 148.005316 -9.989643 -106.164975
56.1723 54.001200000000004 50.993100000000005 -165.317346 -16.843034 -179.397574 12.658285 5.263272 180.0 -1.666551 2.302999 -176.247398 -9.978764 24.648268 -90.497319 34.443058 16.015645 109.116145 -0.002396 0.0 -0.000398 -0.001664 0.0 -0.0011 -40.763651 63.15027 43.382398 -99.100011 -4.719399 155.004435 103.905792 -38.134022 -92.146701 -53.900459 48.817196 33.496905 -8.201859 7.848974 1.806949 -75.026023 21.966122 70.386159 -0.327585 0.529673 0.187629 -86.487966 47.216033 67.730373 -36.036166 51.723142 29.832188 42.900437 -69.729073 17.210848 -0.022127 -1.726865 -0.542948 -154.094658 12.763064 170.110946 -156.381028 53.734154 -150.118705 -24.594646 -39.173554 -25.191341 131.055285 54.036785 -134.941613 163.568198 57.156539 -119.680873 134.077134 -0.329529 -162.89346 -15.949619 -17.732275 -15.872825 85.829562 38.629798 -47.955332 121.577961 -16.499112 -77.165719 12.93989 17.785107 -8.597358 11.084636 25.08943 -7.739158 125.644158 49.840365 -115.27477 172.068086 -31.38544 -143.786286 145.120351 1.974805 179.748127 152.528131 -25.070858 175.333802 25.517028 -38.070843 24.579623 -3.950807 2.07865 -0.330635 179.997229 75.75044 0.001896 125.698248 77.571891 180.0 40.123873 -25.080979 118.946096 101.616326 69.316118 1.673422 179.993997 75.748696 0.006193 -147.729736 -4.216163 90.017945 82.749192 -2.330382 134.061245 -89.183561 60.284684 164.867954
56.043299999999995 53.993500000000004 51.0386 -165.284115 -16.588545 -179.228076 12.836849 4.916017 -180.0 -1.672814 2.263598 -176.273718 8.531286 15.745902 59.029816 -23.324366 -10.521269 -39.811059 -0.001227 0.0 -0.001089 0.004435 0.0 0.002864 -85.537096 68.181307 88.688889 82.383918 -10.752318 40.372098 95.437559 41.378371 75.666974 -60.98333 51.798757 40.50551 -99.394586 37.100904 57.491881 -91.720239 -5.445526 61.718124 -162.920423 -37.929031 122.629259 0.898324 22.53012 -4.105152 7.904983 -24.807499 -3.012141 3.080391 0.179378 0.016258 -145.120025 0.185291 -179.186951 -152.384628 -25.063746 -175.331667 44.7498 86.377502 -5.384907 -74.738623 -53.939019 -73.420997 -4.239278 -44.742749 8.647905 -60.361413 14.042188 -0.107516 10.577539 23.751689 -31.768354 4.49557 46.532734 -7.24668 -88.928742 -50.831036 -37.599256 15.645031 -43.214349 30.244114 140.762468 1.380065 -116.2286 -6.737325 5.139603 8.570603 -10.082407 -31.592448 3.251502 -167.886663 -64.068474 -133.191701 74.843258 72.959863 -92.828437 76.582658 83.270607 -85.479132 151.105277 33.059891 146.770079 147.690708 10.954956 141.591523 0.008124 0.000713 0.008124 -8.407779 6.617962 -127.944584 -29.475184 -23.396301 85.33223 153.187869 -16.295237 6.13451 179.997581 75.748856 0.002496 -146.399457 -3.249383 2.911341 26.473199 79.945135 -157.270265 2.331248 9.175559 123.921482
55.9362 53.9918 51.0875 -165.38416 -16.215963 -179.198346 10.33826 7.350819 90.604845 -4.68875 -4.072704 -86.823464 10.237368 27.064762 127.403161 -28.504872 24.920454 -99.901895 0.000865 -0.0 -0.001751 0.001588 0.0 0.00189 -83.951446 68.258039 87.085759 -107.090037 -10.975504 138.237997 -177.896247 24.15233 -69.370773 -11.870926 -23.982521 -6.441996 -173.976343 -11.643415 89.881636 -48.867292 -13.631885 8.144466 -46.209177 39.652324 36.318606 7.498263 -1.165844 -2.705927 89.034639 -81.394017 59.759205 -163.534678 -4.932813 143.165723 0.000655 -0.061042 -0.01786 10.328069 0.078553 -0.058735 -136.277077 -10.956055 -133.61819 -147.031022 11.521668 -141.764661 -0.162574 -0.990084 0.218592 110.310753 4.498853 -143.146522 -82.008048 44.058626 100.335053 -172.006791 17.813831 -158.245103 -178.045814 -19.289711 -88.935882 -119.804386 -66.976702 -91.157601 46.208184 39.654187 -36.316868 67.695555 50.198616 -47.950076 -21.551023 -58.000785 -0.004297 -3.262881 -0.636928 0.00531 145.122315 1.080554 179.467031 149.487856 -38.765836 171.994189 -54.24042 87.258448 14.522758 24.398896 -39.479198 24.489125 -179.829976 75.750122 -0.131046 130.17664 77.537727 -129.504633 -10.001583 -35.838383 -146.37318 -52.834195 50.934334 -38.150766 -0.0 -0.00172 -0.000466 76.648792 -56.161766 180.0 81.362411 -20.01759 143.867873 104.055234 -34.699189 -163.316108
55.8562 53.9938 51.131800000000005 -165.463965 -15.923528 -179.247996 10.173365 7.524968 91.613659 -4.768683 -4.041511 -87.869376 -10.263882 22.813931 -78.877031 35.564225 9.828658 99.565261 0.005399 -0.0 -0.003411 -0.000243 -0.0 0.001495 -159.219826 -48.724825 170.568754 -59.398584 16.914926 7.630194 167.856794 16.190668 -63.322604 -16.158329 -7.51148 -2.804401 -172.401017 -10.080482 89.938975 -115.536048 14.192036 53.042794 -27.422654 30.639308 20.09778 4.962838 4.204832 -0.741733 -57.867297 59.218426 50.525301 -42.078927 58.473514 36.330844 -0.015292 -1.322984 -0.416953 9.814341 -62.545791 -9.185668 32.031717 83.319632 6.215776 -153.78653 29.281057 -146.11019 155.538305 -3.733506 -161.884254 -149.047402 12.699241 158.210792 12.877902 9.358124 -27.888153 2.707989 40.96648 -6.884601 -81.27631 -49.995168 -32.240488 15.531753 -36.329341 28.251652 162.920181 -37.929116 -122.629196 61.045794 57.231248 -46.991072 169.089138 -33.247425 -145.375189 1.483157 12.582221 -2.534612 73.62617 72.973386 -91.55364 -5.862747 0.892657 4.396575 81.324866 -51.183145 79.740481 22.61464 -39.784281 24.691831 0.000377 0.000957 -0.000485 -8.848057 6.43971 -125.772621 -30.01174 -19.466823 110.970561 -89.997534 10.473058 4.273014 0.000377 0.000957 -0.000485 77.250012 -53.597026 -23.946111 -72.141818 2.129301 89.571561 -100.493791 -20.952499 14.060942
